<svg id="visual" viewBox="0 0 900 600" width="900" height="600" xmlns="http://www.w3.org/2000/svg"
     xmlns:xlink="http://www.w3.org/1999/xlink" version="1.1">
    <rect width="900" height="600" fill="#f9eae0"></rect>
    <g>
        <g transform="translate(222 12)">
            <path d="M0 -62.8L54.4 -31.4L54.4 31.4L0 62.8L-54.4 31.4L-54.4 -31.4Z" fill="none" stroke="#fcc183"
                  stroke-width="6"></path>
        </g>
        <g transform="translate(97 302)">
            <path d="M0 -40L34.6 -20L34.6 20L0 40L-34.6 20L-34.6 -20Z" fill="none" stroke="#fcc183"
                  stroke-width="6"></path>
        </g>
        <g transform="translate(461 598)">
            <path d="M0 -46L39.8 -23L39.8 23L0 46L-39.8 23L-39.8 -23Z" stroke="#fcc183" fill="none"
                  stroke-width="6"></path>
        </g>
        <g transform="translate(548 326)">
            <path d="M0 -52L45 -26L45 26L0 52L-45 26L-45 -26Z" stroke="#fcc183" fill="none" stroke-width="6"></path>
        </g>
        <g transform="translate(762 263)">
            <path d="M0 -55L47.6 -27.5L47.6 27.5L0 55L-47.6 27.5L-47.6 -27.5Z" stroke="#fcc183" fill="none"
                  stroke-width="6"></path>
        </g>
        <g transform="translate(391 346)">
            <path d="M0 -36L31.2 -18L31.2 18L0 36L-31.2 18L-31.2 -18Z" stroke="#fcc183" fill="none"
                  stroke-width="6"></path>
        </g>
        <g transform="translate(97 544)">
            <path d="M0 -42L36.4 -21L36.4 21L0 42L-36.4 21L-36.4 -21Z" stroke="#fcc183" fill="none"
                  stroke-width="6"></path>
        </g>
        <g transform="translate(5 208)">
            <path d="M0 -48L41.6 -24L41.6 24L0 48L-41.6 24L-41.6 -24Z" stroke="#fcc183" fill="none"
                  stroke-width="6"></path>
        </g>
        <g transform="translate(206 161)">
            <path d="M0 -47L40.7 -23.5L40.7 23.5L0 47L-40.7 23.5L-40.7 -23.5Z" stroke="#fcc183" fill="none"
                  stroke-width="6"></path>
        </g>
        <g transform="translate(893 94)">
            <path d="M0 -59L51.1 -29.5L51.1 29.5L0 59L-51.1 29.5L-51.1 -29.5Z" stroke="#fcc183" fill="none"
                  stroke-width="6"></path>
        </g>
        <g transform="translate(208 388)">
            <path d="M0 -35L30.3 -17.5L30.3 17.5L0 35L-30.3 17.5L-30.3 -17.5Z" stroke="#fcc183" fill="none"
                  stroke-width="6"></path>
        </g>
        <g transform="translate(727 103)">
            <path d="M0 -56L48.5 -28L48.5 28L0 56L-48.5 28L-48.5 -28Z" stroke="#fcc183" fill="none"
                  stroke-width="6"></path>
        </g>
        <g transform="translate(700 424)">
            <path d="M0 -54L46.8 -27L46.8 27L0 54L-46.8 27L-46.8 -27Z" stroke="#fcc183" fill="none"
                  stroke-width="6"></path>
        </g>
        <g transform="translate(512 50)">
            <path d="M0 -31L26.8 -15.5L26.8 15.5L0 31L-26.8 15.5L-26.8 -15.5Z" stroke="#fcc183" fill="none"
                  stroke-width="6"></path>
        </g>
        <g transform="translate(808 491)">
            <path d="M0 -38L32.9 -19L32.9 19L0 38L-32.9 19L-32.9 -19Z" stroke="#fcc183" fill="none"
                  stroke-width="6"></path>
        </g>
    </g>
</svg>